<svg width="27" height="28" viewBox="0 0 27 28" fill="none" xmlns="http://www.w3.org/2000/svg">
<path d="M11.5879 24.6286C11.5879 24.4453 11.5475 24.2642 11.4697 24.0983C11.3919 23.9323 11.2786 23.7854 11.1377 23.6681C10.9968 23.5508 10.8318 23.4659 10.6545 23.4195C10.4771 23.3731 10.2918 23.3662 10.1115 23.3994C8.47512 23.6997 6.40908 23.7449 5.85975 22.2019C5.38076 21.0069 4.58734 19.9638 3.56362 19.1831C3.49057 19.1434 3.42096 19.0977 3.35549 19.0464C3.26589 18.8101 3.10676 18.6064 2.89907 18.4624C2.69138 18.3183 2.4449 18.2406 2.19215 18.2395H2.18605C1.85555 18.2394 1.53846 18.3702 1.30419 18.6034C1.06992 18.8365 0.93755 19.1529 0.936053 19.4834C0.931165 20.5027 1.9498 21.1558 2.36305 21.3767C2.85036 21.8664 3.24199 22.4426 3.51784 23.076C3.97317 24.3553 5.2964 26.2962 9.10011 26.046C9.10136 26.0899 9.10255 26.1314 9.10316 26.1692L9.10865 26.5037C9.10865 26.8352 9.24035 27.1532 9.47477 27.3876C9.70919 27.622 10.0271 27.7537 10.3587 27.7537C10.6902 27.7537 11.0081 27.622 11.2425 27.3876C11.477 27.1532 11.6087 26.8352 11.6087 26.5037L11.6026 26.1058C11.5965 25.8689 11.5879 25.5259 11.5879 24.6286ZM24.9217 5.72114C24.9613 5.56489 25.0004 5.39155 25.0346 5.19624C25.2367 3.80323 25.0605 2.38148 24.5243 1.07999C24.4567 0.910321 24.3527 0.757501 24.2198 0.632246C24.0868 0.506991 23.9281 0.412332 23.7547 0.354905C23.3097 0.204755 21.6667 -0.0906577 18.5246 1.9174C15.9127 1.30277 13.1939 1.30277 10.5821 1.9174C7.45278 -0.0612451 5.81825 0.207255 5.37758 0.348855C5.19991 0.403955 5.03682 0.498113 4.90026 0.624427C4.76371 0.750741 4.65715 0.90601 4.58839 1.07885C4.04127 2.40533 3.86694 3.85607 4.08424 5.2744C4.11477 5.43432 4.14772 5.58203 4.1819 5.71752C3.14637 7.09682 2.59479 8.77922 2.61269 10.5039C2.60932 10.8887 2.62704 11.2734 2.66579 11.6562C3.08329 17.4094 6.83329 19.1367 9.44618 19.73C9.39186 19.8862 9.34243 20.0535 9.29848 20.2305C9.22015 20.5521 9.27257 20.8916 9.44423 21.1747C9.61589 21.4577 9.89278 21.6611 10.2142 21.7403C10.5356 21.8195 10.8753 21.768 11.1588 21.5971C11.4423 21.4262 11.6464 21.1498 11.7265 20.8286C11.806 20.4121 12.0099 20.0295 12.3112 19.7312C12.4934 19.5717 12.6253 19.3627 12.6909 19.1296C12.7565 18.8965 12.7529 18.6493 12.6806 18.4182C12.6083 18.1871 12.4704 17.982 12.2837 17.8278C12.0969 17.6736 11.8694 17.577 11.6288 17.5498C7.31118 17.0566 5.43678 15.2976 5.1548 11.4268C5.12357 11.1202 5.10951 10.8121 5.11269 10.5039C5.09263 9.27472 5.49873 8.0765 6.26198 7.11279C6.33867 7.01232 6.42036 6.91576 6.50673 6.82348C6.65977 6.65223 6.76266 6.44213 6.80412 6.21624C6.84557 5.99034 6.82399 5.7574 6.74173 5.54297C6.6574 5.31738 6.59247 5.08501 6.54764 4.84838C6.4458 4.17553 6.47921 3.48912 6.64589 2.82933C7.73231 3.13617 8.75479 3.63563 9.66464 4.30393C9.8151 4.40415 9.98535 4.47084 10.1639 4.49949C10.3424 4.52813 10.5249 4.51806 10.6992 4.46995C13.2256 3.78433 15.8891 3.78476 18.4153 4.4712C18.5905 4.51926 18.774 4.52875 18.9532 4.49904C19.1325 4.46933 19.3031 4.40111 19.4535 4.29909C20.3591 3.62801 21.3772 3.12409 22.4601 2.81105C22.626 3.455 22.6631 4.12538 22.5693 4.7837C22.524 5.04313 22.4533 5.29745 22.3581 5.54299C22.2759 5.75742 22.2543 5.99037 22.2957 6.21626C22.3372 6.44215 22.4401 6.65226 22.5931 6.8235C22.6896 6.93214 22.786 7.04933 22.8727 7.15919C23.6305 8.10659 24.0297 9.29103 24 10.5039C24.0023 10.8284 23.9866 11.1528 23.953 11.4756C23.6778 15.2951 21.796 17.0554 17.4583 17.5498C17.2176 17.5772 16.9901 17.6739 16.8033 17.8283C16.6166 17.9826 16.4788 18.1878 16.4066 18.4191C16.3343 18.6503 16.3309 18.8975 16.3965 19.1307C16.4622 19.3638 16.5942 19.5729 16.7765 19.7324C17.0873 20.0387 17.2916 20.4366 17.3594 20.8677C17.4439 21.2023 17.4827 21.5468 17.4748 21.8918V24.8093C17.4625 25.6186 17.4625 26.2253 17.4625 26.5036C17.4625 26.8352 17.5942 27.1531 17.8286 27.3875C18.0631 27.6219 18.381 27.7536 18.7125 27.7536C19.044 27.7536 19.362 27.6219 19.5964 27.3875C19.8308 27.1531 19.9625 26.8352 19.9625 26.5036C19.9625 26.2326 19.9625 25.6382 19.9747 24.8288V21.8918C19.9848 21.3391 19.9197 20.7876 19.7812 20.2524C19.7417 20.0767 19.6932 19.9032 19.636 19.7324C21.5375 19.4165 23.2653 18.4361 24.5118 16.9657C25.7582 15.4953 26.4424 13.6303 26.4426 11.7026C26.4838 11.3044 26.503 10.9042 26.5 10.5039C26.5278 8.77736 25.9716 7.09205 24.9216 5.72117L24.9217 5.72114Z" fill="#C9D6EA"/>
</svg>
